<?xml version="1.0" encoding="UTF-8" ?>
<svg version="1.1" width="16" height="16" xmlns="http://www.w3.org/2000/svg" shape-rendering="crispEdges">
<rect x="9" y="2" width="2" height="1" fill="#F8F9FA" />
<rect x="8" y="3" width="1" height="1" fill="#F8F9FA" />
<rect x="9" y="3" width="1" height="1" fill="#212529" />
<rect x="10" y="3" width="1" height="1" fill="#F8F9FA" />
<rect x="6" y="4" width="2" height="1" fill="#F8F9FA" />
<rect x="8" y="4" width="1" height="1" fill="#212529" />
<rect x="9" y="4" width="1" height="1" fill="#F8F9FA" />
<rect x="5" y="5" width="1" height="1" fill="#F8F9FA" />
<rect x="6" y="5" width="4" height="10" fill="#ADB5BD" />
<rect x="10" y="5" width="1" height="1" fill="#F8F9FA" />
<rect x="4" y="6" width="1" height="1" fill="#F8F9FA" />
<rect x="5" y="6" width="1" height="9" fill="#ADB5BD" />
<rect x="10" y="6" width="1" height="9" fill="#ADB5BD" />
<rect x="11" y="6" width="1" height="1" fill="#F8F9FA" />
<rect x="3" y="7" width="1" height="1" fill="#F8F9FA" />
<rect x="4" y="7" width="1" height="8" fill="#ADB5BD" />
<rect x="11" y="7" width="1" height="8" fill="#ADB5BD" />
<rect x="12" y="7" width="1" height="1" fill="#F8F9FA" />
<rect x="2" y="8" width="1" height="1" fill="#F8F9FA" />
<rect x="3" y="8" width="1" height="6" fill="#ADB5BD" />
<rect x="12" y="8" width="1" height="6" fill="#ADB5BD" />
<rect x="13" y="8" width="1" height="1" fill="#F8F9FA" />
<rect x="1" y="9" width="1" height="5" fill="#F8F9FA" />
<rect x="2" y="9" width="1" height="5" fill="#ADB5BD" />
<rect x="13" y="9" width="1" height="5" fill="#ADB5BD" />
<rect x="14" y="9" width="1" height="5" fill="#F8F9FA" />
<rect x="2" y="14" width="2" height="1" fill="#F8F9FA" />
<rect x="12" y="14" width="2" height="1" fill="#F8F9FA" />
<rect x="4" y="15" width="8" height="1" fill="#F8F9FA" />
</svg>