<?xml version="1.0" encoding="UTF-8" ?>
<svg version="1.1" width="160" height="160" xmlns="http://www.w3.org/2000/svg" shape-rendering="crispEdges">
<rect x="90" y="20" width="20" height="10" fill="#F8F9FA" />
<rect x="80" y="30" width="10" height="10" fill="#F8F9FA" />
<rect x="90" y="30" width="10" height="10" fill="#212529" />
<rect x="100" y="30" width="10" height="10" fill="#F8F9FA" />
<rect x="60" y="40" width="20" height="10" fill="#F8F9FA" />
<rect x="80" y="40" width="10" height="10" fill="#212529" />
<rect x="90" y="40" width="10" height="10" fill="#F8F9FA" />
<rect x="50" y="50" width="10" height="10" fill="#F8F9FA" />
<rect x="60" y="50" width="40" height="50" fill="#ADB5BD" />
<rect x="100" y="50" width="10" height="10" fill="#F8F9FA" />
<rect x="40" y="60" width="10" height="10" fill="#F8F9FA" />
<rect x="50" y="60" width="10" height="10" fill="#ADB5BD" />
<rect x="100" y="60" width="10" height="10" fill="#ADB5BD" />
<rect x="110" y="60" width="10" height="10" fill="#F8F9FA" />
<rect x="30" y="70" width="10" height="10" fill="#F8F9FA" />
<rect x="40" y="70" width="10" height="80" fill="#ADB5BD" />
<rect x="50" y="70" width="10" height="10" fill="#E9ECEF" />
<rect x="100" y="70" width="10" height="10" fill="#E9ECEF" />
<rect x="110" y="70" width="10" height="80" fill="#ADB5BD" />
<rect x="120" y="70" width="10" height="10" fill="#F8F9FA" />
<rect x="20" y="80" width="10" height="10" fill="#F8F9FA" />
<rect x="30" y="80" width="10" height="60" fill="#ADB5BD" />
<rect x="50" y="80" width="10" height="10" fill="#212529" />
<rect x="100" y="80" width="10" height="10" fill="#212529" />
<rect x="120" y="80" width="10" height="60" fill="#ADB5BD" />
<rect x="130" y="80" width="10" height="10" fill="#F8F9FA" />
<rect x="10" y="90" width="10" height="50" fill="#F8F9FA" />
<rect x="20" y="90" width="10" height="40" fill="#ADB5BD" />
<rect x="50" y="90" width="10" height="60" fill="#ADB5BD" />
<rect x="100" y="90" width="10" height="60" fill="#ADB5BD" />
<rect x="130" y="90" width="10" height="40" fill="#ADB5BD" />
<rect x="140" y="90" width="10" height="50" fill="#F8F9FA" />
<rect x="60" y="100" width="10" height="10" fill="#ADB5BD" />
<rect x="70" y="100" width="20" height="20" fill="#212529" />
<rect x="90" y="100" width="10" height="10" fill="#ADB5BD" />
<rect x="60" y="110" width="10" height="10" fill="#212529" />
<rect x="90" y="110" width="10" height="10" fill="#212529" />
<rect x="60" y="120" width="40" height="30" fill="#ADB5BD" />
<rect x="20" y="130" width="10" height="10" fill="#212529" />
<rect x="130" y="130" width="10" height="10" fill="#212529" />
<rect x="20" y="140" width="20" height="10" fill="#F8F9FA" />
<rect x="120" y="140" width="20" height="10" fill="#F8F9FA" />
<rect x="40" y="150" width="20" height="10" fill="#F8F9FA" />
<rect x="60" y="150" width="10" height="10" fill="#212529" />
<rect x="70" y="150" width="20" height="10" fill="#F8F9FA" />
<rect x="90" y="150" width="10" height="10" fill="#212529" />
<rect x="100" y="150" width="20" height="10" fill="#F8F9FA" />
</svg>